# xmcd
#
# Track frame offsets:
# 150
# 13933
# 27249
# 44819
# 56856
# 70812
# 89577
# 100196
# 112428
# 125995
# 137671
# 149910
#
# Disc length: 2173 seconds
#
# Revision: 1
# Processed by: cddbd v1.5.2PL0 Copyright (c) Steve Scherf et al.
# Submitted via: CedeCatalogueitor 2.6.0.6 http://personales.ya.com/cdcatalogueitor
#
DISCID=cb087b0c
DTITLE=Howlin' Wolf - Big City Blues
DYEAR=1966
DGENRE=
TTITLE0=Riding In The Moonlight
TTITLE1=Worried About My Baby
TTITLE2=Crying At Daylight
TTITLE3=Brown Skin Woman
TTITLE4=Twisting And Turning
TTITLE5=House Rockin' Boogie
TTITLE6=Keep What You Got
TTITLE7=Dog Me Around
TTITLE8=Backslide Boogie
TTITLE9=I've Been Abused
TTITLE10=Mr. Airplane Man
TTITLE11=I Ain't Superstitious
EXTD=
EXTT0=
EXTT1=
EXTT2=
EXTT3=
EXTT4=
EXTT5=
EXTT6=
EXTT7=
EXTT8=
EXTT9=
EXTT10=
EXTT11=
PLAYORDER=
